#!OML:ASF H:\Terrain\Patient Classification 1\Animal1\Tuesday\Animal1.ASF
:FULLY-SPECIFIED
:DEGREES
2988
root 6.73312 16.8711 2.63367 -174.694 -125.83 -174.935
lowerback -10.1161 0.590892 0.491371
upperback -1.03883 0.725715 -0.328167
thorax 4.60118 0.36169 -0.518107
lowerneck 9.4526 13.6505 -0.938301
upperneck -4.10273 18.3027 2.85341
head -3.329 8.96801 -0.0213548
rclavicle 7.02207e-014 -7.95139e-016
rhumerus -31.6664 -3.54393 -85.3939
rradius 8.91864
rwrist -11.8447
rhand -1.67845 9.7348
rfingers 7.12502
rthumb 23.9818 -18.7872
lclavicle 7.02207e-014 -7.95139e-016
lhumerus -36.7984 30.8146 69.3271
lradius 7.99418
lwrist -54.9572
lhand 44.4024 46.951
lfingers 7.12502
lthumb 65.9283 52.5025
rfemur -14.1662 30.042 21.1101
rtibia 18.4566
rfoot -53.2584 -39.5764
rtoes 54.9384
lfemur -10.4714 -27.4721 -23.6739
ltibia 9.41966
lfoot -41.112 41.3362
ltoes 51.3333
2989
root 6.72561 16.8681 2.6316 -174.69 -125.803 -174.782
lowerback -10.3414 0.664817 0.358645
upperback -0.996579 0.843118 -0.42648
thorax 4.77217 0.418281 -0.526757
lowerneck 9.35598 13.4982 -1.03753
upperneck -4.17366 18.1066 3.05403
head -3.3656 8.86366 0.0688158
rclavicle -5.83185e-014 3.18055e-015
rhumerus -31.4043 -3.82741 -85.4828
rradius 8.82421
rwrist -12.1055
rhand -1.69527 9.37674
rfingers 7.12502
rthumb 23.9656 -19.1474
lclavicle -5.83185e-014 3.18055e-015
lhumerus -36.3365 30.7254 69.6886
lradius 7.77276
lwrist -54.9953
lhand 44.3542 46.4317
lfingers 7.12502
lthumb 65.891 52.0518
rfemur -14.3708 30.0603 20.927
rtibia 18.5401
rfoot -53.6246 -39.0609
rtoes 55.2914
lfemur -10.5297 -27.4487 -23.6989
ltibia 9.263
lfoot -41.8186 40.7577
ltoes 52.0072
2990
root 6.71602 16.8725 2.63122 -174.844 -125.842 -174.427
lowerback -10.5209 0.62303 0.0270905
upperback -1.03065 0.827569 -0.484834
thorax 4.83262 0.404003 -0.401445
lowerneck 9.33593 13.4099 -1.05175
upperneck -4.13888 17.9903 3.12251
head -3.35669 8.80429 0.102162
rclavicle 6.25178e-014 1.55052e-014
rhumerus -31.3137 -3.83736 -85.544
rradius 8.74343
rwrist -12.2991
rhand -1.8308 9.23416
rfingers 7.12502
rthumb 23.8357 -19.307
lclavicle 6.25178e-014 1.55052e-014
lhumerus -36.3406 30.6997 69.7284
lradius 7.80675
lwrist -55.1615
lhand 44.8137 46.3216
lfingers 7.12502
lthumb 66.2445 51.2802
rfemur -14.5047 29.9089 20.6287
rtibia 18.5446
rfoot -53.7983 -38.5431
rtoes 55.4771
lfemur -10.6401 -27.5077 -23.8614
ltibia 9.23407
lfoot -40.5054 41.9404
ltoes 50.5917
2991
root 6.70716 16.8784 2.62653 -174.596 -125.966 -174.493
lowerback -10.7217 0.524729 -0.129883
upperback -1.11788 0.709884 -0.410461
thorax 4.84945 0.341247 -0.251294
lowerneck 9.47802 13.3902 -1.05665
upperneck -4.14033 17.9623 3.12494
head -3.38397 8.78787 0.0942731
rclavicle -2.77553e-014 -7.15625e-015
rhumerus -31.2904 -3.65722 -85.5291
rradius 8.65601
rwrist -12.1408
rhand -0.274162 9.63559
rfingers 7.12502
rthumb 25.3277 -18.7026
lclavicle -2.77553e-014 -7.15625e-015
lhumerus -36.6699 30.6719 69.5271
lradius 8.04258
lwrist -55.3176
lhand 45.6563 46.3211
lfingers 7.12502
lthumb 66.8836 50.0125
rfemur -14.7348 29.8902 20.5708
rtibia 18.5839
rfoot -54.0049 -38.196
rtoes 55.3875
lfemur -10.8248 -27.6183 -23.664
ltibia 9.10472
lfoot -39.5842 42.8851
ltoes 49.4903
2992
root 6.69995 16.8803 2.62318 -174.088 -126.128 -174.992
lowerback -10.866 0.474312 0.0406966
upperback -1.12187 0.618059 -0.323595
thorax 4.92615 0.29833 -0.269277
lowerneck 9.44658 13.3505 -1.02591
upperneck -4.10262 17.9193 3.23449
head -3.37303 8.76227 0.129859
rclavicle 4.03284e-014 1.47101e-014
rhumerus -31.1033 -3.62562 -85.5942
rradius 8.47607
rwrist -11.7301
rhand 1.22485 9.96172
rfingers 7.12502
rthumb 26.763 -18.1652
lclavicle 4.03284e-014 1.47101e-014
lhumerus -36.8712 30.511 69.2844
lradius 8.30759
lwrist -55.3331
lhand 45.473 45.7773
lfingers 7.12502
lthumb 66.7456 49.7505
rfemur -14.8867 29.6555 20.9064
rtibia 18.7227
rfoot -53.5014 -38.6223
rtoes 54.7754
lfemur -10.793 -27.7299 -23.2306
ltibia 8.76125
lfoot -39.888 42.6875
ltoes 49.8547
2993
root 6.69132 16.8792 2.62275 -174.417 -126.277 -174.627
lowerback -10.9047 0.35233 -0.362502
upperback -1.05393 0.507629 -0.361569
thorax 5.01505 0.236212 -0.0976636
lowerneck 9.06649 13.3276 -0.908407
upperneck -3.74843 17.8977 3.39131
head -3.18318 8.75661 0.207845
rclavicle -5.42931e-014 -3.97569e-015
rhumerus -30.9064 -3.57499 -85.7304
rradius 8.38154
rwrist -11.772
rhand 1.16292 9.86355
rfingers 7.12502
rthumb 26.7038 -18.2724
lclavicle -5.42931e-014 -3.97569e-015
lhumerus -36.9333 30.4932 69.1356
lradius 8.43335
lwrist -55.2576
lhand 44.7609 45.6922
lfingers 7.12502
lthumb 66.2041 50.7277
rfemur -14.8418 29.3426 20.7708
rtibia 18.8197
rfoot -53.1193 -38.907
rtoes 54.8895
lfemur -10.6014 -27.8916 -23.4898
ltibia 8.55343
lfoot -39.6197 42.6445
ltoes 49.8957
2994
root 6.68482 16.8759 2.62166 -174.902 -126.323 -174.021
lowerback -10.9619 0.243251 -0.883949
upperback -1.05562 0.427765 -0.397731
thorax 5.04166 0.186029 0.146742
lowerneck 8.98425 13.2795 -1.08608
upperneck -3.50752 17.8195 3.6507
head -3.12935 8.7156 0.331738
rclavicle -7.12395e-014 -9.93923e-015
rhumerus -30.9467 -3.41759 -85.7561
rradius 8.45689
rwrist -12.3246
rhand -0.496371 9.56058
rfingers 7.12502
rthumb 25.1149 -18.8076
lclavicle -7.12395e-014 -9.93923e-015
lhumerus -37.029 30.5902 69.125
lradius 8.43892
lwrist -55.1879
lhand 45.2219 46.2663
lfingers 7.12502
lthumb 66.5556 50.62
rfemur -14.8421 29.354 20.3783
rtibia 18.8173
rfoot -53.392 -38.6055
rtoes 55.5486
lfemur -10.6082 -27.9685 -23.8998
ltibia 8.60729
lfoot -40.0049 42.1669
ltoes 50.7153
